# xmcd CD database file
#
# Track frame offsets:
#	150
#	19714
#	38251
#	53396
#	65590
#	83002
#	97617
#	114129
#	130563
#	142953
#	157267
#	177617
#	190999
#
# Disc length: 2788 seconds
#
# Revision: 0
# Processed by: cddbd v1.5.2PL0 Copyright (c) Steve Scherf et al.
# Submitted via: CDex 1.70beta2
#
DISCID=950ae20d
DTITLE=K.K. Martin - Naked Blues
DYEAR=1900
DGENRE=Blues
TTITLE0=Killin' Me By Degrees
TTITLE1=Angels Laid Him Away
TTITLE2=Graveyard Blues
TTITLE3=3220 Blues
TTITLE4=Up Jumps The Devil
TTITLE5=St. James Infirmary
TTITLE6=Pinetop Road
TTITLE7=Drop Down Mama
TTITLE8=Darkness on the Delta
TTITLE9=Maudie's Blues
TTITLE10=Dirty Dozens
TTITLE11=Mean to Me
TTITLE12=I Shall not be Moved
EXTD=
EXTT0=
EXTT1=
EXTT2=
EXTT3=
EXTT4=
EXTT5=
EXTT6=
EXTT7=
EXTT8=
EXTT9=
EXTT10=
EXTT11=
EXTT12=
PLAYORDER=
